<svg id="Layer_1" data-name="Layer 1" xmlns="http://www.w3.org/2000/svg" viewBox="0 0 434.34 434.39"><defs><style>.cls-1{fill:#00ff2e;}.cls-2{fill:#fff;}</style></defs><path class="cls-1" d="M77.26,104.63c-6.74,7.18-13.69,16-24.05,17.81-.59.1-.7-.08-.33-.55a218,218,0,0,1,68.49-57.77,215,215,0,0,1,98.28-25.29,217.26,217.26,0,0,1,56.87,6.63A219.77,219.77,0,0,1,367.3,92.93a224.51,224.51,0,0,1,28.35,29.58.42.42,0,0,1,0,.53.54.54,0,0,1-.61.13,47.08,47.08,0,0,1-10.81-5.26,32.76,32.76,0,0,1-4.56-4.26A215.73,215.73,0,0,0,252.08,47.14,209.18,209.18,0,0,0,127.67,68.51a219.92,219.92,0,0,0-42.76,28.9A99,99,0,0,0,77.26,104.63Z" transform="translate(-6.83 -38.8)"/><path class="cls-2" d="M157.66,399.94c-50.74-50.71-84.56-115.83-102-185.07A480.69,480.69,0,0,1,42.9,140.05a18.5,18.5,0,0,1,.07-4,1.17,1.17,0,0,1,.72-.94l179.67-74a1.5,1.5,0,0,1,1.14,0L404,135a1.37,1.37,0,0,1,.82,1,16.74,16.74,0,0,1,.13,4c-6.31,77.92-32.57,155-79,218.21a350.25,350.25,0,0,1-101.37,93.13,1.15,1.15,0,0,1-1.28,0A346,346,0,0,1,157.66,399.94ZM58.32,193.55c13.17,64.39,40.6,125.57,82.58,176.25a351.82,351.82,0,0,0,82.5,72.81.7.7,0,0,0,.76,0c103.48-63.92,161.65-179.29,172.68-298.19a26.65,26.65,0,0,0,.1-3.22,1.22,1.22,0,0,0-.74-1.08L224.3,69.27a1,1,0,0,0-.81,0l-172,70.94a1,1,0,0,0-.48.4,1.53,1.53,0,0,0-.25,1A471.23,471.23,0,0,0,58.32,193.55Z" transform="translate(-6.83 -38.8)"/><path class="cls-1" d="M441.17,252.28v7.33q-1.32,62.77-35.15,114.9c-1.37,2.11-2.77,4.18-4.22,6.2A220.1,220.1,0,0,1,282.33,465.1a212.29,212.29,0,0,1-99.2,4.08,215.66,215.66,0,0,1-53.36-17.79,219.65,219.65,0,0,1-79.52-65q-2.31-3-4.43-6.06Q10.92,330.23,7.24,268.69c-.17-2.85-.3-5.7-.41-8.56V252.7A222.85,222.85,0,0,1,35.2,147.89a2.09,2.09,0,0,1,.41-.52.26.26,0,0,1,.37,0,.24.24,0,0,1,.07.12c1.13,5.22,1.25,10-1.08,14.8-1.17,2.4-2.29,4.78-3.34,7.13A209.74,209.74,0,0,0,15.09,285.1a207.57,207.57,0,0,0,55.8,115.79,212.67,212.67,0,0,0,82.28,53.46c2.28.83,4.63,1.62,7.08,2.39a210.31,210.31,0,0,0,231.68-73.31c1.62-2.13,3.15-4.23,4.57-6.29a211.22,211.22,0,0,0,16.39-214.88,16.27,16.27,0,0,1-1.51-4c-.64-3.28,0-7.12.53-10.5a.22.22,0,0,1,.22-.21.32.32,0,0,1,.28.18A195.86,195.86,0,0,1,433,195.94,223.39,223.39,0,0,1,441.17,252.28Z" transform="translate(-6.83 -38.8)"/><path class="cls-1" d="M181,226.89a1,1,0,0,0,0-1.38h0q-20-20.08-40.6-40.61A5.54,5.54,0,0,1,139,178a17.31,17.31,0,0,1,8.65-8.85c2.22-1.06,5.23-1.25,7.14.66q25.86,25.77,51.83,51.78a7.68,7.68,0,0,1,1.59,2.31c1.41,3.15-.64,5.93-2.71,8.06-16.94,17.42-34.82,35.59-51.38,51-2.92,2.72-6.38,1.42-8.89-1-2-1.92-3.67-3.73-5.13-5.46-3.11-3.67-1.83-6.95,1.12-9.92Q160,247.77,181,226.89Z" transform="translate(-6.83 -38.8)"/><rect class="cls-2" x="252.03" y="228.57" width="21.01" height="94.34" rx="6.46" transform="translate(-20.5 498.98) rotate(-89.9)"/></svg>